<svg width="106" height="106" viewBox="0 0 106 106" fill="none" xmlns="http://www.w3.org/2000/svg">
<g filter="url(#filter0_di_3_168)">
<path d="M52.8 66.96C65.9444 66.96 76.6 56.3044 76.6 43.16C76.6 30.0156 65.9444 19.36 52.8 19.36C39.6556 19.36 29 30.0156 29 43.16C29 56.3044 39.6556 66.96 52.8 66.96Z" stroke="#7C1D56" stroke-width="4.76" stroke-linecap="round" stroke-linejoin="round"/>
<path d="M44.6128 21.145C55.0134 35.4964 58.9404 43.5646 63.7242 63.3186M69.7694 26.7142C60.9158 37.0672 48.4922 40.185 29.595 40.6372M76.005 45.1592C67.675 42.9458 60.2256 43.2076 54.7278 45.1592C48.5874 47.3488 42.804 51.966 37.0206 60.2008" stroke="#7C1D56" stroke-width="4.76" stroke-linecap="round" stroke-linejoin="round"/>
</g>
<defs>
<filter id="filter0_di_3_168" x="0.440022" y="0.320007" width="104.72" height="104.72" filterUnits="userSpaceOnUse" color-interpolation-filters="sRGB">
<feFlood flood-opacity="0" result="BackgroundImageFix"/>
<feColorMatrix in="SourceAlpha" type="matrix" values="0 0 0 0 0 0 0 0 0 0 0 0 0 0 0 0 0 0 127 0" result="hardAlpha"/>
<feOffset dy="9.52"/>
<feGaussianBlur stdDeviation="4.76"/>
<feComposite in2="hardAlpha" operator="out"/>
<feColorMatrix type="matrix" values="0 0 0 0 0 0 0 0 0 0 0 0 0 0 0 0 0 0 0.25 0"/>
<feBlend mode="normal" in2="BackgroundImageFix" result="effect1_dropShadow_3_168"/>
<feBlend mode="normal" in="SourceGraphic" in2="effect1_dropShadow_3_168" result="shape"/>
<feColorMatrix in="SourceAlpha" type="matrix" values="0 0 0 0 0 0 0 0 0 0 0 0 0 0 0 0 0 0 127 0" result="hardAlpha"/>
<feMorphology radius="7.14" operator="dilate" in="SourceAlpha" result="effect2_innerShadow_3_168"/>
<feOffset dx="9.52" dy="9.52"/>
<feGaussianBlur stdDeviation="5.95"/>
<feComposite in2="hardAlpha" operator="arithmetic" k2="-1" k3="1"/>
<feColorMatrix type="matrix" values="0 0 0 0 0.486486 0 0 0 0 0.113514 0 0 0 0 0.337297 0 0 0 0.2 0"/>
<feBlend mode="normal" in2="shape" result="effect2_innerShadow_3_168"/>
</filter>
</defs>
</svg>
