<svg width="53" height="51" viewBox="0 0 53 51" fill="none" xmlns="http://www.w3.org/2000/svg">
<path d="M36.16 17.48C39.9473 17.48 43.5795 18.9845 46.2575 21.6625C48.9355 24.3405 50.44 27.9727 50.44 31.76V48.42H40.92V31.76C40.92 30.4976 40.4185 29.2869 39.5258 28.3942C38.6332 27.5015 37.4224 27 36.16 27C34.8976 27 33.6869 27.5015 32.7942 28.3942C31.9015 29.2869 31.4 30.4976 31.4 31.76V48.42H21.88V31.76C21.88 27.9727 23.3845 24.3405 26.0625 21.6625C28.7405 18.9845 32.3727 17.48 36.16 17.48Z" stroke="#7C1D56" stroke-width="4.76" stroke-linecap="round" stroke-linejoin="round"/>
<path d="M12.36 19.86H2.84V48.42H12.36V19.86Z" stroke="#7C1D56" stroke-width="4.76" stroke-linecap="round" stroke-linejoin="round"/>
<path d="M7.6 12.72C10.2289 12.72 12.36 10.5889 12.36 7.96001C12.36 5.33114 10.2289 3.20001 7.6 3.20001C4.97112 3.20001 2.84 5.33114 2.84 7.96001C2.84 10.5889 4.97112 12.72 7.6 12.72Z" stroke="#7C1D56" stroke-width="4.76" stroke-linecap="round" stroke-linejoin="round"/>
</svg>
