<svg width="160" height="83" viewBox="0 0 160 83" fill="none" xmlns="http://www.w3.org/2000/svg">
<rect width="2.68" height="2.68" transform="matrix(-1 0 0 1 56.28 33.125)" fill="#7C1D56"/>
<rect width="2.68" height="2.68" transform="matrix(-1 0 0 1 58.96 35.805)" fill="#7C1D56"/>
<rect x="56.28" y="27.765" width="5.36" height="5.36" fill="#7C1D56"/>
<path d="M67.5628 29.6373H68.1739L72.0652 38.8994C75.1526 46.3284 77.243 51.0559 77.854 52.2458C77.243 52.1172 76.7606 52.085 76.1495 52.085C75.5385 52.085 74.9596 52.1493 74.4451 52.2458C73.7054 49.8016 72.419 46.7143 71.1326 43.6269C69.7497 43.5304 68.3347 43.5626 66.9518 43.5626C65.6332 43.5626 64.2503 43.6269 62.9961 43.6269C61.1951 47.9685 60.3911 50.3805 59.8766 52.2458C59.3942 52.1172 59.0726 52.085 58.6867 52.085C58.3007 52.085 57.9148 52.1172 57.4967 52.2458C60.166 46.3927 64.7327 36.1336 67.5628 29.6373ZM67.1126 33.9789L63.6071 42.1476C64.379 42.1476 65.6011 42.2119 67.1447 42.2119C67.8844 42.2119 69.5567 42.1476 70.6823 42.1476L67.1126 33.9789ZM88.6595 36.5517C91.8755 36.5517 93.8373 38.3848 93.8373 42.244C93.8373 43.9485 93.7086 45.8138 93.7086 48.258C93.7086 51.088 93.773 51.6669 93.773 52.2458C93.2262 52.1172 92.8403 52.085 92.4222 52.085C92.0042 52.085 91.6182 52.1172 91.1037 52.2458C91.1037 50.4127 91.3288 47.5183 91.3288 45.4279V42.9516C91.3288 40.2823 90.1389 38.224 87.7912 38.224C84.9611 38.224 83.4818 40.025 83.4818 43.3696V47.2288C83.4818 48.6117 83.5782 50.7986 83.739 52.2458C83.2245 52.1493 82.7742 52.085 82.2918 52.085C81.8094 52.085 81.3592 52.1493 80.8446 52.2458C81.1019 50.2197 81.1019 47.872 81.1019 46.5856V42.244C81.1019 40.3144 81.0054 38.5456 80.8446 36.8733C81.3914 37.002 81.8738 37.0341 82.2918 37.0341C82.6134 37.0341 83.0315 36.9698 83.5782 36.8733C83.5461 37.42 83.4818 38.6743 83.4818 39.4461H83.5461C84.736 37.613 86.344 36.5517 88.6595 36.5517ZM98.8113 33.6895L101.481 32.5639H101.641C101.513 34.2362 101.481 35.5226 101.384 37.3236C102.252 37.3236 103.86 37.2271 104.793 37.2271C104.761 37.3557 104.761 37.9346 104.761 38.0311C104.761 38.3205 104.761 38.4813 104.793 38.5778C104.053 38.5456 102.928 38.5135 102.51 38.5135H101.384C101.288 39.414 101.159 44.7847 101.159 46.7786C101.159 49.2228 101.32 51.5383 103.732 51.5383C104.214 51.5383 104.825 51.4418 105.211 51.3132V52.085C104.407 52.3744 103.507 52.5674 102.735 52.5674C100.098 52.5674 98.7791 51.2167 98.7791 48.4831C98.7791 47.0359 98.9721 43.3053 99.0042 38.5135C97.8786 38.5135 97.1711 38.5456 96.8174 38.5778C96.9138 38.224 96.8817 38.0954 96.8817 37.8381C96.8817 37.613 96.8495 37.42 96.8174 37.1949C97.9751 37.2914 98.5862 37.2914 98.9399 37.2914L98.8113 33.6895Z" fill="#C62E89"/>
</svg>
