<svg width="85" height="85" viewBox="0 0 85 85" fill="none" xmlns="http://www.w3.org/2000/svg">
<g filter="url(#filter0_di_3_166)">
<path d="M61.5107 42.0086C61.1426 45.9918 59.6477 49.7877 57.201 52.9523C54.7542 56.1169 51.4568 58.5192 47.6946 59.8781C43.9324 61.237 39.8609 61.4964 35.9567 60.6259C32.0524 59.7553 28.4769 57.7908 25.6483 54.9623C22.8198 52.1338 20.8554 48.5582 19.9848 44.654C19.1142 40.7497 19.3736 36.6783 20.7326 32.9161C22.0915 29.1538 24.4938 25.8564 27.6584 23.4097C30.823 20.963 34.6189 19.4681 38.6021 19.1C36.27 22.255 35.1479 26.1421 35.4396 30.0545C35.7314 33.9669 37.4177 37.6446 40.1919 40.4188C42.966 43.193 46.6438 44.8793 50.5562 45.171C54.4685 45.4628 58.3557 44.3406 61.5107 42.0086Z" stroke="#7C1D56" stroke-width="4.68" stroke-linecap="round" stroke-linejoin="round"/>
</g>
<defs>
<filter id="filter0_di_3_166" x="-8.59999" y="0.380005" width="102.96" height="102.96" filterUnits="userSpaceOnUse" color-interpolation-filters="sRGB">
<feFlood flood-opacity="0" result="BackgroundImageFix"/>
<feColorMatrix in="SourceAlpha" type="matrix" values="0 0 0 0 0 0 0 0 0 0 0 0 0 0 0 0 0 0 127 0" result="hardAlpha"/>
<feOffset dy="9.36"/>
<feGaussianBlur stdDeviation="4.68"/>
<feComposite in2="hardAlpha" operator="out"/>
<feColorMatrix type="matrix" values="0 0 0 0 0 0 0 0 0 0 0 0 0 0 0 0 0 0 0.25 0"/>
<feBlend mode="normal" in2="BackgroundImageFix" result="effect1_dropShadow_3_166"/>
<feBlend mode="normal" in="SourceGraphic" in2="effect1_dropShadow_3_166" result="shape"/>
<feColorMatrix in="SourceAlpha" type="matrix" values="0 0 0 0 0 0 0 0 0 0 0 0 0 0 0 0 0 0 127 0" result="hardAlpha"/>
<feMorphology radius="7.02" operator="dilate" in="SourceAlpha" result="effect2_innerShadow_3_166"/>
<feOffset dx="9.36" dy="9.36"/>
<feGaussianBlur stdDeviation="5.85"/>
<feComposite in2="hardAlpha" operator="arithmetic" k2="-1" k3="1"/>
<feColorMatrix type="matrix" values="0 0 0 0 0.486486 0 0 0 0 0.113514 0 0 0 0 0.337297 0 0 0 0.2 0"/>
<feBlend mode="normal" in2="shape" result="effect2_innerShadow_3_166"/>
</filter>
</defs>
</svg>
