<svg width="25" height="25" viewBox="0 0 25 25" fill="none" xmlns="http://www.w3.org/2000/svg">
<path d="M23.5 11.625C23.5043 13.2749 23.1188 14.9024 22.375 16.375C21.493 18.1397 20.1372 19.624 18.4593 20.6616C16.7814 21.6993 14.8478 22.2493 12.875 22.25C11.2252 22.2543 9.59764 21.8689 8.125 21.125L1 23.5L3.375 16.375C2.63116 14.9024 2.2457 13.2749 2.25 11.625C2.25076 9.65223 2.80076 7.7186 3.8384 6.04072C4.87603 4.36285 6.36032 3.00699 8.125 2.12504C9.59764 1.3812 11.2252 0.995734 12.875 1.00004H13.5C16.1054 1.14378 18.5663 2.24349 20.4114 4.08861C22.2565 5.93373 23.3563 8.3946 23.5 11V11.625Z" stroke="black" stroke-width="2" stroke-linecap="round" stroke-linejoin="round"/>
</svg>
