<svg width="44" height="44" viewBox="0 0 44 44" fill="none" xmlns="http://www.w3.org/2000/svg">
<g filter="url(#filter0_di_3_159)">
<rect x="4" width="36" height="36" rx="8" fill="white"/>
<path d="M23 24C25.7614 24 28 21.7614 28 19C28 16.2386 25.7614 14 23 14C20.2386 14 18 16.2386 18 19C18 21.7614 20.2386 24 23 24Z" stroke="#7C1D56" stroke-width="2" stroke-linecap="round" stroke-linejoin="round"/>
<path d="M23 8V10" stroke="#7C1D56" stroke-width="2" stroke-linecap="round" stroke-linejoin="round"/>
<path d="M23 28V30" stroke="#7C1D56" stroke-width="2" stroke-linecap="round" stroke-linejoin="round"/>
<path d="M15.22 11.22L16.64 12.64" stroke="#7C1D56" stroke-width="2" stroke-linecap="round" stroke-linejoin="round"/>
<path d="M29.36 25.36L30.78 26.78" stroke="#7C1D56" stroke-width="2" stroke-linecap="round" stroke-linejoin="round"/>
<path d="M12 19H14" stroke="#7C1D56" stroke-width="2" stroke-linecap="round" stroke-linejoin="round"/>
<path d="M32 19H34" stroke="#7C1D56" stroke-width="2" stroke-linecap="round" stroke-linejoin="round"/>
<path d="M15.22 26.78L16.64 25.36" stroke="#7C1D56" stroke-width="2" stroke-linecap="round" stroke-linejoin="round"/>
<path d="M29.36 12.64L30.78 11.22" stroke="#7C1D56" stroke-width="2" stroke-linecap="round" stroke-linejoin="round"/>
</g>
<defs>
<filter id="filter0_di_3_159" x="0" y="0" width="44" height="44" filterUnits="userSpaceOnUse" color-interpolation-filters="sRGB">
<feFlood flood-opacity="0" result="BackgroundImageFix"/>
<feColorMatrix in="SourceAlpha" type="matrix" values="0 0 0 0 0 0 0 0 0 0 0 0 0 0 0 0 0 0 127 0" result="hardAlpha"/>
<feOffset dy="4"/>
<feGaussianBlur stdDeviation="2"/>
<feComposite in2="hardAlpha" operator="out"/>
<feColorMatrix type="matrix" values="0 0 0 0 0 0 0 0 0 0 0 0 0 0 0 0 0 0 0.25 0"/>
<feBlend mode="normal" in2="BackgroundImageFix" result="effect1_dropShadow_3_159"/>
<feBlend mode="normal" in="SourceGraphic" in2="effect1_dropShadow_3_159" result="shape"/>
<feColorMatrix in="SourceAlpha" type="matrix" values="0 0 0 0 0 0 0 0 0 0 0 0 0 0 0 0 0 0 127 0" result="hardAlpha"/>
<feMorphology radius="3" operator="dilate" in="SourceAlpha" result="effect2_innerShadow_3_159"/>
<feOffset dx="4" dy="4"/>
<feGaussianBlur stdDeviation="2.5"/>
<feComposite in2="hardAlpha" operator="arithmetic" k2="-1" k3="1"/>
<feColorMatrix type="matrix" values="0 0 0 0 0.486486 0 0 0 0 0.113514 0 0 0 0 0.337297 0 0 0 0.2 0"/>
<feBlend mode="normal" in2="shape" result="effect2_innerShadow_3_159"/>
</filter>
</defs>
</svg>
